<svg width="32" height="32" xmlns="http://www.w3.org/2000/svg">

 <g>
  <title>background</title>
  <rect fill="none" id="canvas_background" height="402" width="582" y="-1" x="-1"/>
 </g>
 <g>
  <title>Layer 1</title>
  <rect id="svg_1" stroke="#F2F2F2" fill="white" rx="7.5" height="31" width="31" y="0.5" x="0.5"/>
  <g stroke="null" id="svg_7">
   <path stroke="null" id="svg_6" fill="#DDDDDD" d="m19.217359,9.362014c1.123032,0 2.066337,0.384812 2.829916,1.154435c0.763648,0.769623 1.145506,1.709018 1.145506,2.818178c0,0.543263 -0.112303,1.092186 -0.33691,1.64677c-0.224606,0.554576 -0.471687,1.046911 -0.741173,1.476991c-0.269555,0.430121 -0.724352,0.984656 -1.36446,1.663743c-0.640107,0.679087 -1.179149,1.228018 -1.617124,1.646791c-0.437976,0.418773 -1.139784,1.058211 -2.105564,1.918384l-1.04444,0.95068l-1.044351,-0.916705c-0.943312,-0.8828 -1.639571,-1.533586 -2.088763,-1.952359c-0.449199,-0.418773 -0.993852,-0.967703 -1.63396,-1.646791c-0.640101,-0.679087 -1.094918,-1.233622 -1.364432,-1.663743c-0.269521,-0.430079 -0.510962,-0.922414 -0.724331,-1.476991c-0.213369,-0.554583 -0.320054,-1.103507 -0.320054,-1.64677c0,-1.10916 0.381817,-2.048555 1.145451,-2.818178c0.763634,-0.769623 1.695723,-1.154435 2.796253,-1.154435c1.302676,0 2.380745,0.509309 3.234187,1.527926c0.853477,-1.018617 1.93156,-1.527926 3.234249,-1.527926zm-3.166826,11.272684c1.100557,-0.995934 1.903432,-1.737298 2.408831,-2.223952c0.50533,-0.486654 1.061193,-1.069559 1.667657,-1.748647c0.606396,-0.679066 1.027481,-1.273258 1.263325,-1.782566c0.235844,-0.509309 0.353731,-1.024277 0.353731,-1.544907c0,-0.724348 -0.241428,-1.324207 -0.724283,-1.799561c-0.482924,-0.475354 -1.083736,-0.713035 -1.802435,-0.713035c-0.539041,0 -1.050024,0.158451 -1.53288,0.475361c-0.482855,0.316903 -0.825418,0.724348 -1.02755,1.222336l-1.347583,0c-0.179678,-0.497988 -0.510962,-0.905434 -0.993845,-1.222336c-0.48289,-0.31691 -1.005082,-0.475361 -1.566578,-0.475361c-0.718713,0 -1.313899,0.237681 -1.785559,0.713035c-0.471653,0.475354 -0.707482,1.075213 -0.707482,1.799561c0,0.520629 0.112296,1.035598 0.336896,1.544907c0.224599,0.509309 0.645719,1.1035 1.263366,1.782566c0.617647,0.679087 1.179142,1.261993 1.684493,1.748647c0.505344,0.486654 1.297057,1.228018 2.375119,2.223952l0.067354,0.067951l0.067423,-0.067951z"/>
  </g>
  <g id="svg_18">
   <path id="svg_17" d="m16.000001,152.585562c-80.160199,-78.864537 -156.618507,-146.60916 -156.618507,-205.05634c0,-53.976433 43.682325,-73.909697 75.191121,-73.909697c18.680316,0 59.102129,7.133261 81.427386,63.458971c22.638493,-56.496567 63.558638,-63.316591 81.527052,-63.316591c36.164637,0 75.091455,23.079873 75.091455,73.767317c0,57.934609 -73.126605,122.803147 -156.618507,205.05634m81.527052,-293.061702c-31.366416,0 -63.302353,14.836044 -81.527052,46.102793c-18.295889,-31.40913 -50.146398,-46.245174 -81.427386,-46.245174c-45.319701,0 -89.429167,31.138607 -89.429167,88.147743c0,66.363533 79.320155,134.250536 170.856553,225.08927c91.550636,-90.838734 170.856553,-158.725738 170.856553,-225.08927c0,-57.108803 -44.066753,-88.005363 -89.329501,-88.005363"/>
  </g>
 </g>
</svg>